<?xml version="1.0" encoding="utf-8"?>
<!-- Generator: Adobe Illustrator 23.0.4, SVG Export Plug-In . SVG Version: 6.00 Build 0)  -->
<svg version="1.1" id="Layer_1" xmlns="http://www.w3.org/2000/svg" xmlns:xlink="http://www.w3.org/1999/xlink" x="0px" y="0px"
	 viewBox="0 0 528 159" style="enable-background:new 0 0 528 159;" xml:space="preserve">
<style type="text/css">
	.st0{fill-rule:evenodd;clip-rule:evenodd;fill:#124351;}
</style>
<g>
	<path class="st0" d="M327.6,124.3c-30.6,22.6-75,34.6-113.4,34.6c-53.7,0-101.9-19.8-138.6-52.8c-2.8-2.6-0.4-6.1,3.1-4.1
		c39.5,23,88.2,36.7,138.6,36.7c33.9,0,71.3-7,105.8-21.7C328.3,115.1,332.6,120.6,327.6,124.3L327.6,124.3z"/>
	<path class="st0" d="M340.4,109.7c-3.9-5-25.9-2.4-35.8-1.1c-3,0.4-3.5-2.2-0.7-4.1c17.6-12.4,46.3-8.7,49.7-4.6s-0.9,33-17.4,46.7
		c-2.6,2-5,0.9-3.9-1.9C335.9,135.4,344.2,114.9,340.4,109.7z"/>
	<path class="st0" d="M305.2,17.4v-12c0-1.9,1.3-3,3-3h53.7c1.7,0,3.1,1.3,3.1,3v10.2c0,1.7-1.5,3.9-4.1,7.6l-27.8,39.6
		c10.4-0.2,21.3,1.3,30.6,6.5c2,1.1,2.6,3,2.8,4.6v12.8c0,1.9-1.9,3.9-3.9,2.8c-16.5-8.7-38.5-9.6-56.7,0.2
		c-1.9,0.9-3.9-0.9-3.9-2.8V74.7c0-1.9,0-5.2,2-8.2l32.2-46.1h-28C306.6,20.4,305.2,19.1,305.2,17.4L305.2,17.4z M109.3,92.1H93
		c-1.5-0.2-2.8-1.3-3-2.8V5.6c0-1.7,1.5-3,3.1-3h15.2c1.7,0,2.8,1.3,3,2.8v10.9h0.4c3.9-10.6,11.5-15.6,21.5-15.6
		c10.2,0,16.7,5,21.1,15.6c3.9-10.6,13-15.6,22.6-15.6c6.9,0,14.3,2.8,18.9,9.3c5.2,7,4.1,17.2,4.1,26.3v53c0,1.7-1.5,3-3.1,3h-16.1
		c-1.7-0.2-3-1.5-3-3V44.8c0-3.5,0.4-12.4-0.4-15.7c-1.3-5.6-4.8-7.2-9.6-7.2c-3.9,0-8.2,2.6-9.8,6.9s-1.5,11.3-1.5,16.1v44.5
		c0,1.7-1.5,3-3.1,3h-16.3c-1.7-0.2-3-1.5-3-3V44.8c0-9.3,1.5-23.2-10-23.2c-11.7,0-11.3,13.3-11.3,23.2v44.5
		C112.5,90.8,111.2,92.1,109.3,92.1L109.3,92.1z M411.3,0.7c24.3,0,37.4,20.8,37.4,47.2c0,25.6-14.5,45.9-37.4,45.9
		c-23.7,0-36.7-20.8-36.7-46.7C374.4,21.1,387.6,0.7,411.3,0.7L411.3,0.7z M411.3,18c-12,0-12.8,16.5-12.8,26.7s-0.2,32.1,12.6,32.1
		c12.6,0,13.3-17.6,13.3-28.3c0-7-0.4-15.6-2.4-22.2C420.2,20.2,416.5,18,411.3,18L411.3,18z M480.1,92.1h-16.3c-1.7-0.2-3-1.5-3-3
		V5.2c0.2-1.5,1.5-2.8,3.1-2.8h15.2c1.5,0,2.6,1.1,3,2.4v12.8h0.4c4.6-11.5,10.9-16.9,22.2-16.9c7.2,0,14.5,2.6,19.1,9.8
		c4.3,6.7,4.3,18,4.3,26.1v52.8c-0.2,1.5-1.5,2.6-3.1,2.6h-16.3c-1.5-0.2-2.8-1.3-3-2.6V43.9c0-9.3,1.1-22.6-10.2-22.6
		c-3.9,0-7.6,2.6-9.4,6.7c-2.2,5.2-2.6,10.2-2.6,15.9v45.2C483.2,90.8,481.7,92.1,480.1,92.1L480.1,92.1z M262.4,52.1
		c0,6.3,0.2,11.7-3,17.4c-2.6,4.6-6.7,7.4-11.3,7.4c-6.3,0-10-4.8-10-11.9c0-13.9,12.4-16.5,24.3-16.5V52.1z M278.8,91.9
		c-1.1,0.9-2.6,1.1-3.9,0.4c-5.4-4.4-6.5-6.7-9.4-10.9c-8.9,9.1-15.4,11.9-26.9,11.9c-13.7,0-24.5-8.5-24.5-25.4
		c0-13.3,7.2-22.2,17.4-26.7c8.9-3.9,21.3-4.6,30.8-5.7v-2c0-3.9,0.4-8.5-2-11.9c-2-3-5.7-4.3-9.1-4.3c-6.3,0-11.9,3.1-13.2,9.8
		c-0.4,1.5-1.3,3-2.8,3l-15.7-1.7c-1.3-0.4-2.8-1.3-2.4-3.3c3.7-19.3,20.9-25,36.5-25c8,0,18.3,2,24.6,8.2c8,7.4,7.2,17.4,7.2,28.2
		v25.4c0,7.6,3.1,10.9,6.1,15.2c1.1,1.5,1.3,3.3,0,4.3C288.1,83.9,282.2,89.1,278.8,91.9L278.8,91.9z M48.4,52.1
		c0,6.3,0.2,11.7-3,17.4c-2.6,4.6-6.7,7.4-11.3,7.4c-6.3,0-10-4.8-10-11.9c0-13.9,12.4-16.5,24.3-16.5V52.1z M64.7,91.9
		c-1.1,0.9-2.6,1.1-3.9,0.4c-5.4-4.4-6.5-6.7-9.4-10.9c-8.9,9.1-15.4,11.9-26.9,11.9C10.7,93.2,0,84.7,0,67.8
		c0-13.3,7.2-22.2,17.4-26.7c8.9-3.9,21.3-4.6,30.8-5.7v-2c0-3.9,0.4-8.5-2-11.9c-2-3-5.7-4.3-9.1-4.3c-6.3,0-11.9,3.1-13.2,9.8
		c-0.4,1.5-1.3,3-2.8,3L5.4,28.3C4.1,28,2.6,27.1,3,25C6.7,5.7,23.9,0,39.5,0c8,0,18.3,2,24.6,8.2c8,7.4,7.2,17.4,7.2,28.2v25.4
		c0,7.6,3.1,10.9,6.1,15.2c1.1,1.5,1.3,3.3,0,4.3C73.9,83.9,68,89.1,64.7,91.9L64.7,91.9z"/>
</g>
</svg>
