<?xml version="1.0" encoding="utf-8"?>
<!-- Generator: Adobe Illustrator 23.0.4, SVG Export Plug-In . SVG Version: 6.00 Build 0)  -->
<svg version="1.1" id="Layer_1" xmlns="http://www.w3.org/2000/svg" xmlns:xlink="http://www.w3.org/1999/xlink" x="0px" y="0px"
	 viewBox="0 0 2426.6 517.3" style="enable-background:new 0 0 2426.6 517.3;" xml:space="preserve">
<style type="text/css">
	.st0{fill-rule:evenodd;clip-rule:evenodd;fill:#124351;}
</style>
<g>
	<path class="st0" d="M602,136.6H709v300.9h89V136.6h107.1V60.5H602V136.6z M823.6,437.5h93.5l26.6-76.2h109.1l25.7,76.2h92
		l-129.7-377h-97.3L823.6,437.5z M1027.1,292.8h-64.9l32.6-90.7L1027.1,292.8z M1178,437.5h85.9V301.8h61.8c13,0,28.2-2.4,35.9,8.2
		c7.7,10.6,7,29.1,6.7,48.2c-0.3,19.1-0.2,38.8,4.1,52.8c4.3,14,12.1,26.5,23.3,26.5h77.6c-8.9-9.4-15.2-20.9-18.3-33.5
		c-3.1-12.6-2.6-26.4-2.1-41.6c0.6-15.2,1.2-32-0.6-45.7c-1.8-13.7-5.9-24.4-12.7-32.9c-6.9-8.5-16.1-14.7-26.6-18
		c16.4-11.8,30.1-27.4,38.5-44c8.3-16.6,11.3-34.1,12.4-51.5s0.4-34.5-5.1-50.8c-5.5-16.3-15.7-31.8-29.5-42.4
		c-13.9-10.7-30.9-16.5-48.5-16.6H1178L1178,437.5L1178,437.5L1178,437.5z M1363.8,143.9c10.3,6.8,16.6,19.4,16.5,32.1
		c-0.3,13.2-6.9,25.4-17.6,32.9c-10.8,7.4-25.3,5.8-38.8,5.8h-60v-74.5h63.3C1339.8,140.3,1353.4,137.1,1363.8,143.9L1363.8,143.9z
		 M1509.2,127.2c-12.9,19.1-22.4,41.5-27.6,70.2c-5.2,28.7-6,63.6-1.3,94.1c4.6,30.5,14.8,56.5,27.1,76.7
		c12.3,20.2,26.8,34.5,42.6,46.7c15.8,12.2,32.8,22.3,52,28c19.4,5.6,39.7,7,59.6,4.1c19.2-2.9,36.2-9.8,49.5-15.9
		c13.2-6,22.8-11.2,31.7-17.1l15.1,23.5h55.8l-0.1-211.4h-159.8v73.8h75c2.9,12.7,1.2,26.7-5.3,38.3c-6.5,11.6-17.7,20.8-33.5,27.4
		c-15.9,6.5-36.4,10.3-56.4,4.3c-20-6.1-39.4-22-52.2-40.2c-12.8-18.2-18.9-38.7-21.6-61.4c-2.7-22.7-1.9-47.6,3.5-69.3
		c5.4-21.7,15.6-40.3,28.2-53.6c12.7-13.4,28-21.5,47.3-25s42.5-2.3,58,6.4c15.5,8.6,23.3,24.7,27.7,34.9c4.5,10.2,5.7,14.6,5.8,19
		h80.3c-1.2-16.7-5.9-33-15.5-51.6c-9.6-18.6-24-39.5-44.5-54.3s-47-23.3-71.6-26.5c-22.6-3.1-45.6-1.6-67.6,4.5
		c-20.4,5.6-38.5,14.9-55.7,27.3C1538.4,92.4,1522.1,108.1,1509.2,127.2L1509.2,127.2z M2110.7,437.5v-76.2h-177.2v-87.5l152.3-0.3
		l0-69.1h-152.3v-67.9h177.2V60.5l-265.8,0.1l0.4,377L2110.7,437.5L2110.7,437.5z M2123.5,136.6h107.1v300.9h89V136.6h107.1V60.5
		h-303.1V136.6L2123.5,136.6z M2362.5,420.6h4.9v-0.9c-0.7,0-1.7-0.2-2.1-1.2l-3.7-6.2c3.5-1.1,5-5.7,1.3-8.1c-1.6-0.9-3-1-5-1h-9
		v0.8c1-0.2,2.8,0.5,2.5,1.8c-0.1,4.4,0.2,8.5-0.2,13.1c-0.8,1-1.1,0.6-2.2,0.7v0.9h8.8v-0.9c-1,0.2-2.8-0.5-2.5-1.8v-5.5h2.5
		L2362.5,420.6L2362.5,420.6z M2355.2,411.4v-7.1c2.2-0.1,5.5,0.3,5.5,2.9c0.2,1,0,4-2.5,4.2
		C2357.3,411.5,2356.2,411.4,2355.2,411.4L2355.2,411.4z M2357.4,428.5c3.1,0,6.5-0.9,9.7-3.2c7.9-6.5,9.1-14.7,3.7-23.1
		c-6.6-8-14.7-9.2-23.2-3.8c-8,6.5-9.1,14.7-3.8,23.1C2347.6,426.6,2352.6,428.4,2357.4,428.5z M2357.4,426.7
		c-2.7,0-5.7-0.8-8.6-2.8c-7.1-5.8-8.1-13.1-3.3-20.6c5.8-7,13.1-8.1,20.6-3.3c7.1,5.8,8.1,13.1,3.4,20.6
		C2366,425,2361.5,426.6,2357.4,426.7L2357.4,426.7z"/>
	<path class="st0" d="M303.3,182.1c-13.3-7.7-28.7-11.8-44-11.8s-30.7,4.1-44,11.8c-13.4,7.8-24.5,18.9-32.3,32.3
		c-7.7,13.4-11.8,28.6-11.8,44c0,15.4,4.1,30.8,11.8,44.1c7.7,13.3,18.9,24.6,32.3,32.2s28.7,11.8,44,11.8s30.7-4.1,44-11.8
		c13.3-7.7,24.6-18.9,32.3-32.2c7.7-13.4,11.8-28.6,11.8-44.1c0-15.4-4.1-30.7-11.8-44C327.8,201,316.7,189.9,303.3,182.1z"/>
	<path class="st0" d="M482.6,129.3C460.1,90.2,427,57.2,388,34.6S303.8,0,258.6,0s-90.2,12.1-129.3,34.6
		C90.1,57.4,57.4,90,34.7,129.3C12.1,168.4,0,213.5,0,258.6S12.1,348.9,34.7,388c22.8,39.3,55.4,71.9,94.7,94.7
		c39.3,22.6,83.9,34.6,129.3,34.7c45.1,0,90.2-12.1,129.3-34.7c39.1-22.6,72.1-55.6,94.7-94.7c22.6-39.1,34.6-84.2,34.6-129.3
		S505.2,168.4,482.6,129.3z M406.8,344.2c-15,25.9-36.5,47.4-62.4,62.4c-25.9,14.9-55.3,22.8-85.3,22.8c-29.7,0-59.5-8-85.3-22.8
		c-25.8-14.9-47.5-36.7-62.4-62.4c-14.9-25.8-22.8-55.5-22.8-85.3c0-29.8,8-59.5,22.8-85.3s36.7-47.6,62.4-62.4
		c25.9-14.9,55.3-22.8,85.3-22.8c29.8,0,59.5,8,85.3,22.8c25.9,15,47.4,36.5,62.4,62.4c14.9,25.9,22.8,55.3,22.9,85.3
		C429.6,288.8,421.8,318.2,406.8,344.2z"/>
</g>
</svg>
